<?xml version="1.0" encoding="utf-8"?>
<!-- Generator: Adobe Illustrator 17.0.0, SVG Export Plug-In . SVG Version: 6.00 Build 0)  -->
<!DOCTYPE svg PUBLIC "-//W3C//DTD SVG 1.1 Tiny//EN" "http://www.w3.org/Graphics/SVG/1.1/DTD/svg11-tiny.dtd" [
	<!ENTITY ns_flows "http://ns.adobe.com/Flows/1.0/">
	<!ENTITY ns_extend "http://ns.adobe.com/Extensibility/1.0/">
	<!ENTITY ns_ai "http://ns.adobe.com/AdobeIllustrator/10.0/">
	<!ENTITY ns_graphs "http://ns.adobe.com/Graphs/1.0/">
]>
<svg version="1.1" baseProfile="tiny" xmlns:x="&ns_extend;" xmlns:i="&ns_ai;" xmlns:graph="&ns_graphs;"
	 xmlns="http://www.w3.org/2000/svg" xmlns:xlink="http://www.w3.org/1999/xlink" xmlns:a="http://ns.adobe.com/AdobeSVGViewerExtensions/3.0/"
	 x="0px" y="0px" width="400px" height="400px" viewBox="0 0 400 400" xml:space="preserve">
<g id="BACKGROUND" display="none">
</g>
<g id="OBJECTS">
	<g>
		<path fill="#FF0000" d="M341.068,332.602c0,0-105.793,2.955-141.068,2.955s-141.068-2.955-141.068-2.955
			c-27.324,0-49.679-22.356-49.679-49.679c0,0-2.955-62.162-2.955-82.922s2.955-82.922,2.955-82.922
			c0-27.324,22.356-49.679,49.679-49.679c0,0,105.793-2.955,141.068-2.955s141.068,2.955,141.068,2.955
			c27.324,0,49.679,22.356,49.679,49.679c0,0,2.955,62.11,2.955,82.922s-2.955,82.922-2.955,82.922
			C390.747,310.246,368.392,332.602,341.068,332.602z"/>
		<polygon fill-rule="evenodd" fill="#FFFFFF" points="162.896,260.576 162.896,139.424 260.773,199.991 		"/>
	</g>
</g>
<g id="DESIGNED_BY_FREEPIK" display="none">
</g>
</svg>
